<?xml version="1.0" encoding="UTF-8"?>
<svg version="1.1" xmlns="http://www.w3.org/2000/svg"
     width="800" height="800"
     viewBox="0 0 600 600"
     preserveAspectRatio="xMidYMid meet">
  <path d="M0 0 C0 0.66 0 1.32 0 2 C0.66 2 1.32 2 2 2 C2 2.66 2 3.32 2 4 C2.88945312 4.39445312 2.88945312 4.39445312 3.796875 4.796875 C14.43826429 10.60813015 20.85670402 26.2599698 24.30859375 37.28125 C28.90215499 55.34406707 26.49328498 75.00205678 17 91 ..." fill="#FD9F1C" transform="translate(295,162)"/>
  <path d="M0 0 C4.58785018 4.70858308 6.07762934 9.40223199 6.375 15.875 ..." fill="#FC7B2C" transform="translate(263,343)"/>
 <path d="M0 0 C0.82371094 -0.01224609 1.64742188 -0.02449219 2.49609375 -0.03710938 C6.87068371 -0.04767602 10.26792084 0.13980482 14.25 2.1875 C13.9837668 5.63643011 13.4990752 6.94443696 10.984375 9.3984375 C-8.03158845 23.1875 -8.03158845 23.1875 -14.75 23.1875 C-15.56822733 20.81433882 -16.37968707 18.4392058 -17.1875 16.0625 C-17.41759766 15.39734375 -17.64769531 14.7321875 -17.88476562 14.046875 C-19.21674519 10.10884847 -20.18925034 6.32544578 -20.75 2.1875 C-14.79144359 -0.7917782 -6.5268968 0.00520486 0 0 Z " fill="#FAAB23" transform="translate(341.75,180.8125)"/>
 <path d="M0 0 C0.86367187 0.00064453 1.72734375 0.00128906 2.6171875 0.00195312 C7.50988115 0.0354138 12.17614579 0.36823128 17 1.1875 C18.28935074 4.75990491 17.71014912 6.58345515 16.1875 10 C14.86009777 13.07302709 13.71764932 15.99489421 12.9375 19.25 C12.628125 20.219375 12.31875 21.18875 12 22.1875 C9 23.1875 9 23.1875 6.28515625 22.0703125 C-15.02722545 10.44537703 -15.02722545 10.44537703 -16.828125 4.4140625 C-16.88484375 3.67929688 -16.9415625 2.94453125 -17 2.1875 C-11.21841664 0.20008072 -6.08637369 -0.08629933 0 0 Z " fill="#FCB21D" transform="translate(161,180.8125)"/>
 <path d="M0 0 C4.71875 -0.234375 4.71875 -0.234375 7.25 1.875 C8.17710298 2.90738912 9.09177501 3.95096493 10 5 C11.04220703 6.12728516 11.04220703 6.12728516 12.10546875 7.27734375 C25 21.29501675 25 21.29501675 25 27 C24.11957031 27.32613281 23.23914063 27.65226562 22.33203125 27.98828125 C20.58986328 28.64376953 20.58986328 28.64376953 18.8125 29.3125 C17.66394531 29.74175781 16.51539063 30.17101562 15.33203125 30.61328125 C12.01005418 31.88609653 12.01005418 31.88609653 9.26171875 33.73046875 C8.51535156 34.14941406 7.76898438 34.56835938 7 35 C6.01 34.67 5.02 34.34 4 34 C3.08387629 31.27614053 2.40046118 28.73575971 1.8125 25.9375 C1.6381543 25.13779785 1.46380859 24.3380957 1.28417969 23.51416016 C-0.30122838 15.63831204 -0.39212773 7.99504875 0 0 Z " fill="#FBC11C" transform="translate(203,117)"/>
 <path d="M0 0 C1.98 0 3.96 0 6 0 C6.5850749 11.92902718 4.992946 22.4557797 2 34 C-2.4618055 34 -4.52953812 32.99764484 -8.5 31.0625 C-13.58381961 28.55712137 -13.58381961 28.55712137 -19 27 C-18.39889791 22.89246904 -16.09853324 19.92358714 -13.75 16.625 C-13.36714844 16.07328125 -12.98429687 15.5215625 -12.58984375 14.953125 C-9.90923858 11.13393502 -7.12356062 7.46945828 -4 4 C-3.34 4 -2.68 4 -2 4 C-2 3.34 -2 2.68 -2 2 C-1.34 2 -0.68 2 0 2 C0 1.34 0 0.68 0 0 Z " fill="#FBBE19" transform="translate(291,117)"/>
 <path d="M0 0 C5.44964784 0.47693186 10.30455496 1.90900975 15.4375 3.75 C16.18451172 4.01659424 16.93152344 4.28318848 17.70117188 4.55786133 C22.94526462 6.48654504 27.54443377 8.56550103 32 12 C32.495 13.485 32.495 13.485 33 15 C29.39002876 17.40664749 25.85812096 18.1518237 21.6875 19.0625 C20.89166504 19.2387793 20.09583008 19.41505859 19.27587891 19.59667969 C12.19432247 21.09364007 5.24023069 21.76719515 -2 22 C-3.125 18.25 -3.125 18.25 -2 16 C-1.73634236 12.77385576 -1.5556966 9.55452624 -1.39453125 6.32226562 C-1.10079169 1.10079169 -1.10079169 1.10079169 0 0 Z " fill="#FB9E29" transform="translate(329,215)"/>
 <path d="M0 0 C0.58759646 4.90596407 -1.42603777 8.10779103 -3.9375 12.125 C-4.33702881 12.77863525 -4.73655762 13.43227051 -5.14819336 14.10571289 C-8.93727849 20.16632532 -13.27867278 25.63130404 -18 31 C-18.99 30.67 -19.98 30.34 -21 30 C-22.1875 27.4375 -22.1875 27.4375 -23 25 C-23.66 25 -24.32 25 -25 25 C-25 24.34 -25 23.68 -25 23 C-25.66 23 -26.32 23 -27 23 C-28.54296875 21.57421875 -28.54296875 21.57421875 -30.1875 19.6875 C-30.73792969 19.07261719 -31.28835938 18.45773438 -31.85546875 17.82421875 C-32.23316406 17.22222656 -32.61085938 16.62023437 -33 16 C-31.71577501 12.14732503 -30.52664189 11.93394626 -26.9765625 10.1171875 C-25.955625 9.58996094 -24.9346875 9.06273437 -23.8828125 8.51953125 C-22.80773437 7.97683594 -21.73265625 7.43414062 -20.625 6.875 C-19.55765625 6.32457031 -18.4903125 5.77414063 -17.390625 5.20703125 C-6.93192058 -0.15404268 -6.93192058 -0.15404268 0 0 Z " fill="#FBB419" transform="translate(334,143)"/>
 <path d="M0 0 C4.51303741 -0.24418327 7.42400877 0.32635864 11.4765625 2.30078125 C12.476875 2.78353516 13.4771875 3.26628906 14.5078125 3.76367188 C15.53648437 4.27478516 16.56515625 4.78589844 17.625 5.3125 C18.66140625 5.81201172 19.6978125 6.31152344 20.765625 6.82617188 C25.12655239 8.95310997 29.1892408 10.96995189 33 14 C31.64763423 16.93879484 30.10057341 19.29232911 28 21.75 C27.484375 22.36359375 26.96875 22.9771875 26.4375 23.609375 C25 25 25 25 23 25 C22.731875 25.61875 22.46375 26.2375 22.1875 26.875 C21 29 21 29 18 31 C12.77173625 25.89664357 8.89756462 19.98305639 5.0625 13.8125 C4.56580811 13.0282666 4.06911621 12.2440332 3.55737305 11.43603516 C3.0962915 10.67983887 2.63520996 9.92364258 2.16015625 9.14453125 C1.74386963 8.46753174 1.32758301 7.79053223 0.89868164 7.09301758 C-0.17145218 4.60069016 -0.16177024 2.68515197 0 0 Z " fill="#FCB813" transform="translate(166,143)"/>
 <path d="M0 0 C0.90833969 2.72501908 1.18359985 4.62233971 1.31640625 7.44921875 C1.35830078 8.29677734 1.40019531 9.14433594 1.44335938 10.01757812 C1.48267578 10.89865234 1.52199219 11.77972656 1.5625 12.6875 C1.60568359 13.58017578 1.64886719 14.47285156 1.69335938 15.39257812 C1.79935353 17.59490108 1.90142051 19.79733473 2 22 C-6.12479353 21.73875262 -13.82333768 20.8083765 -21.75 19.0625 C-22.53616699 18.89266602 -23.32233398 18.72283203 -24.13232422 18.54785156 C-29.74403549 17.25596451 -29.74403549 17.25596451 -32 15 C-32 13.68 -32 12.36 -32 11 C-9.58419244 0 -9.58419244 0 0 0 Z " fill="#FAA028" transform="translate(171,215)"/>
 <path d="M0 0 C1.32 0 2.64 0 4 0 C9.18888617 10.68137739 11.87424796 21.30836378 14 33 C6.41 33 -1.18 33 -9 33 C-7.87397852 21.73978517 -7.87397852 21.73978517 -6.66015625 17.75390625 C-6.40169922 16.89732422 -6.14324219 16.04074219 -5.87695312 15.15820312 C-5.47379883 13.87333008 -5.47379883 13.87333008 -5.0625 12.5625 C-4.66514648 11.23702148 -4.66514648 11.23702148 -4.25976562 9.88476562 C-3.11856332 6.16099134 -2.17972848 3.26959272 0 0 Z " fill="#FAC724" transform="translate(248,107)"/>
 <path d="M0 0 C0.99 0 1.98 0 3 0 C1.43407227 6.15931573 -0.98104446 10.88044159 -4.5625 16.0625 C-4.96267334 16.64668701 -5.36284668 17.23087402 -5.77514648 17.83276367 C-6.79310772 19.26413182 -7.89074252 20.63816017 -9 22 C-9.66 22 -10.32 22 -11 22 C-11 22.66 -11 23.32 -11 24 C-11.66 24 -12.32 24 -13 24 C-13 24.66 -13 25.32 -13 26 C-13.66 26 -14.32 26 -15 26 C-15 26.66 -15 27.32 -15 28 C-16.44946289 29.23339844 -16.44946289 29.23339844 -18.47265625 30.609375 C-19.20806641 31.11726563 -19.94347656 31.62515625 -20.70117188 32.1484375 C-21.48041016 32.67695313 -22.25964844 33.20546875 -23.0625 33.75 C-28.16437437 37.22994173 -33.02978817 40.72812459 -37.58764648 44.90722656 C-39 46 -39 46 -41 46 C-41 46.66 -41 47.32 -41 48 C-41.66 48 -42.32 48 -43 48 C-43.99 50.475 -43.99 50.475 -45 53 C-45.75 51.3125 -45.75 51.3125 -46 49 C-43.86618551 45.7230706 -42.74981988 44.24993996 -39 43 C-38.67 42.34 -38.34 41.68 -38 41 C-37 39 -37 39 -34 38 C-33.67 37.01 -33.34 36.02 -33 35 C-30.07920195 32.92469613 -28.62453269 32 -25 32 C-24.67 31.01 -24.34 30.02 -24 29 C-21.39757586 27.35179805 -20.13751221 27 -17 27 C-17 26.34 -17 25.68 -17 25 C-16.01 25 -15.02 25 -14 25 C-14.103125 24.29875 -14.20625 23.5975 -14.3125 22.875 C-13.85991027 18.71117452 -11.75904615 17.10392692 -9 14 C-9 13.34 -9 12.68 -9 12 C-6 10 -6 10 -3 10 C-3 9.01 -3 8.02 -3 7 C-2.34 7 -1.68 7 -1 7 C-0.67 4.69 -0.34 2.38 0 0 Z " fill="#F29B51" transform="translate(314,241)"/>
 <path d="M0 0 C4.60428934 1.31551124 8.18320388 3.09196486 12 6 C12 6.66 12 7.32 12 8 C12.66 8 13.32 8 14 8 C14 8.66 14 9.32 14 10 C14.58910156 10.25523437 15.17820312 10.51046875 15.78515625 10.7734375 C21.75015593 14.07680593 27.34411557 21.76143814 30 28 C29.67 28.99 29.34 29.98 29 31 C28.95875 30.38125 28.9175 29.7625 28.875 29.125 C28.441875 28.073125 28.441875 28.073125 28 27 C27.030625 26.731875 26.06125 26.46375 25.0625 26.1875 C24.051875 25.795625 23.04125 25.40375 22 25 C20.625 21.375 20.625 21.375 20 18 C19.01 18 18.02 18 17 18 C17 17.34 17 16.68 17 16 C16.01 16.33 15.02 16.66 14 17 C14 16.01 14 15.02 14 14 C12.35 14.66 10.7 15.32 9 16 C8.33333333 14.66666667 7.66666667 13.33333333 7 12 C6.62875 11.319375 6.2575 10.63875 5.875 9.9375 C5 8 5 8 5 5 C4.360625 4.731875 3.72125 4.46375 3.0625 4.1875 C1 3 1 3 0 0 Z " fill="#FCB312" transform="translate(283,156)"/>
 <path d="M0 0 C0.495 0.99 0.495 0.99 1 2 C-1.5627992 1.68981396 -4.1252211 1.37693109 -6.6875 1.0625 C-7.40873047 0.97548828 -8.12996094 0.88847656 -8.87304688 0.79882812 C-18.98365972 -0.44768579 -18.98365972 -0.44768579 -21.93359375 -2.05078125 C-28.94968323 -5.27367301 -40.49574413 -3.16000902 -48 -2 C-48.33 -1.67 -48.66 -1.34 -49 -1 C-51.01594582 -0.76572222 -53.038474 -0.58663876 -55.0625 -0.4375 C-56.16722656 -0.35371094 -57.27195313 -0.26992187 -58.41015625 -0.18359375 C-59.26480469 -0.12300781 -60.11945313 -0.06242188 -61 0 C-57.7380964 -2.1746024 -55.01429181 -3.00025886 -51.25 -4.0625 C-49.46335938 -4.57490234 -49.46335938 -4.57490234 -47.640625 -5.09765625 C-31.72861189 -9.04151358 -14.97135159 -6.57993566 0 0 Z " fill="#F8CF4E" transform="translate(282,154)"/>
 <path d="M0 0 C0.66 0.33 1.32 0.66 2 1 C1.41149272 4.0657228 0.80143084 7.12677571 0.1875 10.1875 C0.02185547 11.05181641 -0.14378906 11.91613281 -0.31445312 12.80664062 C-1.54300087 18.85665879 -2.80330553 23.16090695 -7.6875 27.25 C-13.33674128 30.23450483 -17.74364086 30.60750388 -23.75 28.8125 C-27.26802387 27.48792452 -29.71193502 26.08391367 -32 23 C-32 22.34 -32 21.68 -32 21 C-31.01 21 -30.02 21 -29 21 C-29 21.99 -29 22.98 -29 24 C-27.68 24 -26.36 24 -25 24 C-25 24.66 -25 25.32 -25 26 C-23.25181409 26.22304441 -21.50129677 26.4278645 -19.75 26.625 C-18.77546875 26.74101562 -17.8009375 26.85703125 -16.796875 26.9765625 C-12.61379751 27.01161622 -10.60465992 25.4260104 -7.25 23.0625 C-4.28485449 19.0266075 -4.67039549 16.2939195 -5.01953125 11.42578125 C-5 9 -5 9 -3 7 C-2.835 6.175 -2.67 5.35 -2.5 4.5 C-2 2 -2 2 0 0 Z " fill="#F18F4B" transform="translate(265,295)"/>
 <path d="M0 0 C0.90833969 2.72501908 1.18359985 4.62233971 1.31640625 7.44921875 C1.35830078 8.29677734 1.40019531 9.14433594 1.44335938 10.01757812 C1.48267578 10.89865234 1.52199219 11.77972656 1.5625 12.6875 C1.60568359 13.58017578 1.64886719 14.47285156 1.69335938 15.39257812 C1.79935353 17.59490108 1.90142051 19.79733473 2 22 C-0.22942748 21.85820962 -2.45853628 21.71140302 -4.6875 21.5625 C-5.92886719 21.48128906 -7.17023438 21.40007812 -8.44921875 21.31640625 C-11.38180337 21.05508683 -14.13441617 20.65201621 -17 20 C-17 19.67 -17 19.34 -17 19 C-11.39 19.33 -5.78 19.66 0 20 C-0.495 17.525 -0.495 17.525 -1 15 C-1.06652855 12.73004581 -1.08543751 10.45831305 -1.0625 8.1875 C-1.05347656 7.02605469 -1.04445312 5.86460937 -1.03515625 4.66796875 C-1.02355469 3.78753906 -1.01195312 2.90710938 -1 2 C-1.99 2 -2.98 2 -4 2 C-4.33 2.99 -4.66 3.98 -5 5 C-5.89203125 5.12117187 -6.7840625 5.24234375 -7.703125 5.3671875 C-9.45882812 5.61855469 -9.45882812 5.61855469 -11.25 5.875 C-12.41015625 6.03742188 -13.5703125 6.19984375 -14.765625 6.3671875 C-17.91364467 6.82437054 -17.91364467 6.82437054 -20.171875 8.1328125 C-22.52009766 9.24671299 -23.57055041 8.71398894 -26 8 C-23.08489248 6.85017194 -20.16765566 5.70584512 -17.25 4.5625 C-16.425 4.23701172 -15.6 3.91152344 -14.75 3.57617188 C-13.95078125 3.26357422 -13.1515625 2.95097656 -12.328125 2.62890625 C-11.5949707 2.34088135 -10.86181641 2.05285645 -10.10644531 1.75610352 C-6.50351656 0.46284084 -3.89006684 0 0 0 Z " fill="#F3BD64" transform="translate(171,215)"/>
 <path d="M0 0 C6.16356805 1.6658292 11.48259656 4.87805286 17 8 C17 12.5309594 16.52869421 13.05001046 13.625 16.25 C12.99851563 16.95640625 12.37203125 17.6628125 11.7265625 18.390625 C10 20 10 20 8 20 C7.731875 20.61875 7.46375 21.2375 7.1875 21.875 C6 24 6 24 3 26 C1.35 24.02 -0.3 22.04 -2 20 C-1.34 19.67 -0.68 19.34 0 19 C0 19.66 0 20.32 0 21 C3.465 20.505 3.465 20.505 7 20 C7.33 18.35 7.66 16.7 8 15 C9.32 15 10.64 15 12 15 C12 14.01 12 13.02 12 12 C12.66 12 13.32 12 14 12 C14 11.01 14 10.02 14 9 C9.75782901 6.28501057 5.38265584 6.51125008 0.5625 7.5 C0.046875 7.665 -0.46875 7.83 -1 8 C-1 6 -1 6 0.5 4.375 C0.995 3.92125 1.49 3.4675 2 3 C1.34 2.67 0.68 2.34 0 2 C0 1.34 0 0.68 0 0 Z " fill="#F6C756" transform="translate(181,148)"/>
 <path d="M0 0 C0.70936425 5.22902792 -1.70532411 8.49981046 -4.375 12.75 C-4.7875 13.43449219 -5.2 14.11898437 -5.625 14.82421875 C-8.71462054 19.85731027 -8.71462054 19.85731027 -11 21 C-11 10.9047619 -11 10.9047619 -9 7 C-6.4375 5.3125 -6.4375 5.3125 -4 4 C-3.67 3.34 -3.34 2.68 -3 2 C-4.5778125 2.7425 -4.5778125 2.7425 -6.1875 3.5 C-9.25452609 4.82779788 -11.62134936 5.30715006 -15 5 C-10.14488244 1.04397828 -6.28074033 -0.29212746 0 0 Z " fill="#F8C038" transform="translate(334,143)"/>
 <path d="M0 0 C0.86818359 -0.00386719 1.73636719 -0.00773438 2.63085938 -0.01171875 C7.54854607 -0.00428461 12.21465056 0.2939401 17.0625 1.125 C18.43345624 4.81537278 17.66260967 6.83383835 16.125 10.375 C15.55458984 11.71304688 15.55458984 11.71304688 14.97265625 13.078125 C14.67230469 13.75359375 14.37195313 14.4290625 14.0625 15.125 C13.0625 11.125 13.0625 11.125 14.0625 2.125 C0.6975 2.62 0.6975 2.62 -12.9375 3.125 C-13.2675 4.445 -13.5975 5.765 -13.9375 7.125 C-12.6175 7.455 -11.2975 7.785 -9.9375 8.125 C-10.2675 9.115 -10.5975 10.105 -10.9375 11.125 C-12.9175 9.475 -14.8975 7.825 -16.9375 6.125 C-16.6075 4.475 -16.2775 2.825 -15.9375 1.125 C-10.59428225 0.01950667 -5.42826176 -0.02407211 0 0 Z " fill="#F7CE6B" transform="translate(160.9375,180.875)"/>
 <path d="M0 0 C0.82371094 -0.01224609 1.64742188 -0.02449219 2.49609375 -0.03710938 C6.87068371 -0.04767602 10.26792084 0.13980482 14.25 2.1875 C14.00270995 5.80807996 13.50387196 6.96055986 10.74609375 9.42578125 C9.73675781 10.11027344 8.72742188 10.79476562 7.6875 11.5 C6.67558594 12.19738281 5.66367187 12.89476562 4.62109375 13.61328125 C3.83863281 14.13277344 3.05617188 14.65226563 2.25 15.1875 C1.92 14.1975 1.59 13.2075 1.25 12.1875 C2.9 11.8575 4.55 11.5275 6.25 11.1875 C6.58 9.8675 6.91 8.5475 7.25 7.1875 C8.57 6.8575 9.89 6.5275 11.25 6.1875 C11.58 4.8675 11.91 3.5475 12.25 2.1875 C-3.095 2.6825 -3.095 2.6825 -18.75 3.1875 C-18.42 5.4975 -18.09 7.8075 -17.75 10.1875 C-20.37386487 7.12632432 -20.75 6.45576873 -20.75 2.1875 C-14.79144359 -0.7917782 -6.5268968 0.00520486 0 0 Z " fill="#F7D17A" transform="translate(341.75,180.8125)"/>
 <path d="M0 0 C1 2 1 2 0.6875 4.0625 C0 6 0 6 -2 7 C-4.69296942 11.15166119 -6.95902227 15.1421039 -8 20 C-8.66 20 -9.32 20 -10 20 C-10 21.32 -10 22.64 -10 24 C-11.32 24 -12.64 24 -14 24 C-14 25.65 -14 27.3 -14 29 C-14.99 29.33 -15.98 29.66 -17 30 C-15.65995338 18.66897285 -7.93898839 7.93898839 0 0 Z " fill="#F6C050" transform="translate(199,168)"/>
 <path d="M0 0 C5.60041075 0.47214877 10.54768174 2.03339834 15.8125 3.9375 C16.57498047 4.20240234 17.33746094 4.46730469 18.12304688 4.74023438 C23.74260603 6.74260603 23.74260603 6.74260603 26 9 C20.45305725 8.52181528 17.00183087 7.50091544 12 5 C8.69102443 4.1827229 5.36054105 3.56451777 2 3 C2 5.97 2 8.94 2 12 C1.34 12 0.68 12 0 12 C0 13.98 0 15.96 0 18 C-0.66 18 -1.32 18 -2 18 C-1.85980308 15.18711295 -1.71312045 12.37483115 -1.5625 9.5625 C-1.52318359 8.76005859 -1.48386719 7.95761719 -1.44335938 7.13085938 C-1.11328125 1.11328125 -1.11328125 1.11328125 0 0 Z " fill="#F2B158" transform="translate(329,215)"/>
 <path d="M0 0 C0.5775 0.37125 1.155 0.7425 1.75 1.125 C1.1725 1.74375 0.595 2.3625 0 3 C-4.97941865 9.91585924 -6.90600705 17.81346463 -8.25 26.125 C-8.58 26.125 -8.91 26.125 -9.25 26.125 C-9.6190205 13.45529613 -9.6190205 13.45529613 -7.25 8.125 C-6.59 8.125 -5.93 8.125 -5.25 8.125 C-5.58 5.815 -5.91 3.505 -6.25 1.125 C-2.80384615 -1.09038462 -2.80384615 -1.09038462 0 0 Z " fill="#F5C066" transform="translate(222.25,193.875)"/>
 <path d="M0 0 C0.66 0 1.32 0 2 0 C1.34 1.65 0.68 3.3 0 5 C-0.66 5 -1.32 5 -2 5 C-2 5.99 -2 6.98 -2 8 C-3.98 8.33 -5.96 8.66 -8 9 C-7.67 9.99 -7.34 10.98 -7 12 C-7.66 12.66 -8.32 13.32 -9 14 C-9.99 14 -10.98 14 -12 14 C-12.825 14.680625 -13.65 15.36125 -14.5 16.0625 C-15.325 16.701875 -16.15 17.34125 -17 18 C-17.99 17.67 -18.98 17.34 -20 17 C-14.65448892 11.16189917 -8.67673628 6.26292449 -2 2 C-1.34 2 -0.68 2 0 2 C0 1.34 0 0.68 0 0 Z " fill="#F49D49" transform="translate(263,248)"/>
 <path d="M0 0 C5.41745454 8.12618182 3.98124756 23.01446075 2.328125 32.35546875 C1.62762488 35.59693393 0.87644565 38.80201678 0 42 C-0.33 42 -0.66 42 -1 42 C-1.02696365 40.20841511 -1.04637917 38.41671527 -1.0625 36.625 C-1.07410156 35.62726563 -1.08570313 34.62953125 -1.09765625 33.6015625 C-1 31 -1 31 0 29 C0.08559118 26.82175039 0.10713412 24.64084745 0.09765625 22.4609375 C0.09443359 21.15898437 0.09121094 19.85703125 0.08789062 18.515625 C0.07953466 17.13541601 0.07106971 15.75520768 0.0625 14.375 C0.05748501 12.98698074 0.0529221 11.59895978 0.04882812 10.2109375 C0.03700976 6.80724868 0.02053434 3.40364561 0 0 Z " fill="#F5B862" transform="translate(318,199)"/>
 <path d="M0 0 C0.66 0 1.32 0 2 0 C1.47731534 2.76276177 0.89130413 5.3260876 0 8 C-0.66 8 -1.32 8 -2 8 C-2 8.66 -2 9.32 -2 10 C-2.66 10 -3.32 10 -4 10 C-4 10.66 -4 11.32 -4 12 C-9.43872888 14.76252896 -13.75389273 16.72070468 -20 16 C-22.9375 15 -22.9375 15 -25 14 C-25 13.67 -25 13.34 -25 13 C-19.39 13 -13.78 13 -8 13 C-8.33 11.35 -8.66 9.7 -9 8 C-7.02 8 -5.04 8 -3 8 C-3 7.34 -3 6.68 -3 6 C-2.34 6 -1.68 6 -1 6 C-0.67 4.02 -0.34 2.04 0 0 Z " fill="#F4B35B" transform="translate(211,220)"/>
 <path d="M0 0 C0.33 0 0.66 0 1 0 C1 2.64 1 5.28 1 8 C1.66 8.33 2.32 8.66 3 9 C2.855625 9.58265625 2.71125 10.1653125 2.5625 10.765625 C1.01885182 17.58340445 0.78433846 24.02694354 1 31 C-1 30 -1 30 -2.1875 26.75 C-4.19065013 17.96453053 -2.18201388 8.58258793 0 0 Z " fill="#F2BE5E" transform="translate(181,198)"/>
 <path d="M0 0 C0.25 7.625 0.25 7.625 -2 11 C-6.8274799 9.58707905 -10.7162359 7.57025846 -15 5 C-12.21176345 3.9673198 -11.1322726 3.95490707 -8.25 4.9375 C-7.5075 5.288125 -6.765 5.63875 -6 6 C-5.67 4.35 -5.34 2.7 -5 1 C-1.125 0 -1.125 0 0 0 Z " fill="#F6B645" transform="translate(174,193)"/>
 <path d="M0 0 C5.23175837 -0.38281159 8.37802694 0.78145293 13 3 C13 3.33 13 3.66 13 4 C11.02 4 9.04 4 7 4 C7 3.34 7 2.68 7 2 C5.35 2 3.7 2 2 2 C2 3.32 2 4.64 2 6 C2.99 6.33 3.98 6.66 5 7 C5 8.32 5 9.64 5 11 C5.66 11 6.32 11 7 11 C9.04169485 13.90548882 10 15.40142046 10 19 C11.32 19.33 12.64 19.66 14 20 C13.34 21.32 12.68 22.64 12 24 C10.37212884 21.58522432 8.74762719 19.16829562 7.125 16.75 C6.66480469 16.06808594 6.20460937 15.38617188 5.73046875 14.68359375 C5.28574219 14.01972656 4.84101563 13.35585937 4.3828125 12.671875 C3.97434082 12.0644043 3.56586914 11.45693359 3.14501953 10.83105469 C0.76488201 7.02486462 -0.25281361 4.55064491 0 0 Z " fill="#F5D062" transform="translate(166,143)"/>
 <path d="M0 0 C1.65 0 3.3 0 5 0 C5 0.66 5 1.32 5 2 C7.64 2 10.28 2 13 2 C12.38125 2.556875 11.7625 3.11375 11.125 3.6875 C8.92820855 6.07812598 8.13347983 8.00437473 7 11 C6.01 11.495 6.01 11.495 5 12 C5 11.01 5 10.02 5 9 C4.34 9 3.68 9 3 9 C2.87625 8.360625 2.7525 7.72125 2.625 7.0625 C2.315625 6.0415625 2.315625 6.0415625 2 5 C1.34 4.67 0.68 4.34 0 4 C0 2.68 0 1.36 0 0 Z " fill="#FBBC13" transform="translate(168,145)"/>
 <path d="M0 0 C4.671875 -0.28125 4.671875 -0.28125 7.625 2.25 C9.52273998 4.44738313 11.33009434 6.62697617 13 9 C11.02 9 9.04 9 7 9 C6.67 7.02 6.34 5.04 6 3 C4.68 2.67 3.36 2.34 2 2 C2 7.94 2 13.88 2 20 C-0.18648367 15.62703266 -0.23362071 12.4791784 -0.125 7.75 C-0.11597656 7.00492187 -0.10695312 6.25984375 -0.09765625 5.4921875 C-0.07418358 3.66131941 -0.03831525 1.83061762 0 0 Z " fill="#F6D155" transform="translate(203,117)"/>
 <path d="M0 0 C2.44950621 2.44950621 2.32271254 3.24723021 2.375 6.625 C2.22267775 12.84333166 0.57183103 17.31933871 -3.75390625 21.828125 C-8.4228972 26 -8.4228972 26 -11 26 C-11 25.01 -11 24.02 -11 23 C-9.68 23 -8.36 23 -7 23 C-7.33 21.68 -7.66 20.36 -8 19 C-6.35 19 -4.7 19 -3 19 C-3.020625 18.05125 -3.04125 17.1025 -3.0625 16.125 C-3 13 -3 13 -2 11 C-1.34 11 -0.68 11 0 11 C0 7.37 0 3.74 0 0 Z " fill="#F19B63" transform="translate(267,352)"/>
 <path d="M0 0 C4.0827166 5.01060674 5.2361295 9.39613668 5.625 15.8125 C5.69976562 16.97394531 5.77453125 18.13539063 5.8515625 19.33203125 C5.90054687 20.21246094 5.94953125 21.09289062 6 22 C5.34 22 4.68 22 4 22 C3.67 20.02 3.34 18.04 3 16 C1.68 16.99 0.36 17.98 -1 19 C-1.20662646 15.28072376 -0.63994476 13.27988952 1 10 C0.67 9.01 0.34 8.02 0 7 C-0.03954234 4.66700175 -0.04401732 2.33291811 0 0 Z " fill="#F8A71C" transform="translate(313,186)"/>
 <path d="M0 0 C1.98 0 3.96 0 6 0 C6 5.28 6 10.56 6 16 C5.67 16 5.34 16 5 16 C5 11.05 5 6.1 5 1 C4.01 1 3.02 1 2 1 C1.76539063 1.73605469 1.53078125 2.47210938 1.2890625 3.23046875 C-0.21472659 6.46133682 -1.91297673 8.02665181 -4.625 10.3125 C-5.44226563 11.00988281 -6.25953125 11.70726562 -7.1015625 12.42578125 C-7.72804688 12.94527344 -8.35453125 13.46476563 -9 14 C-9.66 13.67 -10.32 13.34 -11 13 C-9.88266271 11.49428343 -8.75589965 9.99555708 -7.625 8.5 C-6.99851562 7.6646875 -6.37203125 6.829375 -5.7265625 5.96875 C-5.15679687 5.3190625 -4.58703125 4.669375 -4 4 C-3.34 4 -2.68 4 -2 4 C-2 3.34 -2 2.68 -2 2 C-1.34 2 -0.68 2 0 2 C0 1.34 0 0.68 0 0 Z " fill="#F5D766" transform="translate(291,117)"/>
 <path d="M0 0 C1.03253906 0.00676758 1.03253906 0.00676758 2.0859375 0.01367188 C3.76566335 0.02533664 5.44534375 0.04326729 7.125 0.0625 C7.125 0.3925 7.125 0.7225 7.125 1.0625 C6.37476563 1.08828125 5.62453125 1.1140625 4.8515625 1.140625 C-5.05639052 1.68968033 -12.8783758 4.17025059 -20.875 10.0625 C-21.5625 8.25 -21.5625 8.25 -21.875 6.0625 C-20.22995989 3.59493984 -19.07200648 3.11289701 -16.1875 2.375 C-15.424375 2.271875 -14.66125 2.16875 -13.875 2.0625 C-13.875 1.7325 -13.875 1.4025 -13.875 1.0625 C-9.21962644 0.14157719 -4.72814567 -0.05955997 0 0 Z " fill="#F9B541" transform="translate(246.875,181.9375)"/>
 <path d="M0 0 C0.33 1.32 0.66 2.64 1 4 C0.34 4 -0.32 4 -1 4 C-1.54372951 7.05847848 -2 9.88772805 -2 13 C-6.13043478 17.56521739 -6.13043478 17.56521739 -9 19 C-10.13350534 21.01669827 -10.13350534 21.01669827 -11 23 C-11.45364969 18.32391855 -10.00249403 15.55070355 -7.75 11.5 C-6.84507812 9.84484375 -6.84507812 9.84484375 -5.921875 8.15625 C-4.13476293 5.22131799 -2.21241451 2.62357119 0 0 Z " fill="#F68431" transform="translate(242,266)"/>
 <path d="M0 0 C0.66 0.33 1.32 0.66 2 1 C-1.57265961 4.78918443 -5.35106556 8.55592932 -10 11 C-11.32 11 -12.64 11 -14 11 C-14 11.66 -14 12.32 -14 13 C-15.65 13.33 -17.3 13.66 -19 14 C-18.67 13.34 -18.34 12.68 -18 12 C-17.34 12 -16.68 12 -16 12 C-16 11.34 -16 10.68 -16 10 C-11.18584133 6.05162876 -5.80158352 2.32063341 0 0 Z " fill="#F8C74F" transform="translate(219,154)"/>
 <path d="M0 0 C4.00699107 2.91737069 6.63006455 5.94509683 9.375 10.0625 C10.43847656 11.62677734 10.43847656 11.62677734 11.5234375 13.22265625 C12.01070313 14.13917969 12.49796875 15.05570313 13 16 C12.67 16.99 12.34 17.98 12 19 C11.938125 18.071875 11.938125 18.071875 11.875 17.125 C11.441875 16.073125 11.441875 16.073125 11 15 C10.030625 14.731875 9.06125 14.46375 8.0625 14.1875 C7.051875 13.795625 6.04125 13.40375 5 13 C3.625 9.375 3.625 9.375 3 6 C2.01 6 1.02 6 0 6 C0 4.02 0 2.04 0 0 Z " fill="#F8BA49" transform="translate(300,168)"/>
 <path d="M0 0 C-3.75 1.125 -3.75 1.125 -6 0 C-8.08145604 -0.09774794 -10.16625547 -0.12975741 -12.25 -0.125 C-13.92835938 -0.12886719 -13.92835938 -0.12886719 -15.640625 -0.1328125 C-18.84607544 -0.00608539 -21.85244689 0.3991035 -25 1 C-17.92585083 -5.26567498 -7.76806398 -5.95551572 0 0 Z " fill="#F5A06C" transform="translate(260,341)"/>
 <path d="M0 0 C0.99 0 1.98 0 3 0 C1.46166855 5.349198 0.10817043 10.0202099 -4 14 C-4.99 14 -5.98 14 -7 14 C-7 14.99 -7 15.98 -7 17 C-7.66 17.33 -8.32 17.66 -9 18 C-9.33 18.99 -9.66 19.98 -10 21 C-10.99 20.67 -11.98 20.34 -13 20 C-11.982983 16.94894899 -11.17353952 16.17353952 -9 14 C-9 13.34 -9 12.68 -9 12 C-6 10 -6 10 -3 10 C-3 9.01 -3 8.02 -3 7 C-2.34 7 -1.68 7 -1 7 C-0.67 4.69 -0.34 2.38 0 0 Z " fill="#F8922B" transform="translate(314,241)"/>
 <path d="M0 0 C0.33 0 0.66 0 1 0 C1.40652968 5.42039575 0.03993514 9.07015675 -2 14 C-6.9723422 12.50829734 -11.41845739 10.39542583 -16 8 C-16 7.67 -16 7.34 -16 7 C-13.36 7 -10.72 7 -8 7 C-8 7.66 -8 8.32 -8 9 C-6.35 9.33 -4.7 9.66 -3 10 C-3 8.68 -3 7.36 -3 6 C-2.34 6 -1.68 6 -1 6 C-0.67 4.02 -0.34 2.04 0 0 Z " fill="#F3CB65" transform="translate(294,138)"/>
 <path d="M0 0 C1.43836751 0.11458693 2.87570966 0.24209116 4.3125 0.375 C5.51326172 0.47941406 5.51326172 0.47941406 6.73828125 0.5859375 C9 1 9 1 12 3 C12 3.66 12 4.32 12 5 C13.65 5 15.3 5 17 5 C17 6.32 17 7.64 17 9 C17.598125 9.04125 18.19625 9.0825 18.8125 9.125 C21 10 21 10 22.8125 12.8125 C24.0451684 16.1212415 24.01205993 16.82612499 23 20 C22.16121545 18.71186658 21.32913217 17.41936744 20.5 16.125 C20.0359375 15.40570313 19.571875 14.68640625 19.09375 13.9453125 C18 12 18 12 18 10 C17.41992188 9.7215625 16.83984375 9.443125 16.2421875 9.15625 C14.0992211 8.05116628 12.13714071 6.82526537 10.125 5.5 C6.85650414 3.425056 3.75629013 2.03297979 0 1 C0 0.67 0 0.34 0 0 Z " fill="#F5C260" transform="translate(258,183)"/>
 <path d="M0 0 C1.32 0.33 2.64 0.66 4 1 C5.25 3.5625 5.25 3.5625 6 6 C6.66 6 7.32 6 8 6 C7.67 7.65 7.34 9.3 7 11 C5.68 10.34 4.36 9.68 3 9 C2.01 10.32 1.02 11.64 0 13 C0 8.71 0 4.42 0 0 Z " fill="#FCC70D" transform="translate(205,119)"/>
 <path d="M0 0 C17.34042553 0.42553191 17.34042553 0.42553191 25 5 C21.66625029 6.1112499 20.5252744 5.84695389 17.1875 5.0625 C14.19850644 4.40309939 11.82969201 4.00327515 8.75 4.0625 C5.23797974 3.98268136 3.01576603 2.72329488 0 1 C0 0.67 0 0.34 0 0 Z " fill="#FAC11D" transform="translate(258,150)"/>
 <path d="M0 0 C0.66 0.33 1.32 0.66 2 1 C1.67 1.66 1.34 2.32 1 3 C0.34 3 -0.32 3 -1 3 C-1 5.31 -1 7.62 -1 10 C-1.99 10.33 -2.98 10.66 -4 11 C-4.33 15.62 -4.66 20.24 -5 25 C-5.33 25 -5.66 25 -6 25 C-7.19727309 17.10446937 -7.14558763 11.29117526 -3.5 4 C-3.005 3.34 -2.51 2.68 -2 2 C-1.34 2 -0.68 2 0 2 C0 1.34 0 0.68 0 0 Z " fill="#F0A370" transform="translate(233,342)"/>
 <path d="M0 0 C0.99 0 1.98 0 3 0 C3 0.99 3 1.98 3 3 C4.32 3 5.64 3 7 3 C7 3.66 7 4.32 7 5 C11.65499974 5.81462495 16.30976546 6.43393721 21 7 C16.51856355 9.6158611 12.93217271 9.18816639 8 8 C4.06679174 5.92612655 1.52264549 4.26340736 0 0 Z " fill="#F3A571" transform="translate(233,316)"/>
 <path d="M0 0 C0.99 0.33 1.98 0.66 3 1 C2.21654285 2.17219543 1.42297164 3.33763668 0.625 4.5 C0.18414062 5.1496875 -0.25671875 5.799375 -0.7109375 6.46875 C-1.13632812 6.9740625 -1.56171875 7.479375 -2 8 C-2.66 8 -3.32 8 -4 8 C-4 8.66 -4 9.32 -4 10 C-4.66 10 -5.32 10 -6 10 C-6 10.66 -6 11.32 -6 12 C-6.66 12 -7.32 12 -8 12 C-8 12.66 -8 13.32 -8 14 C-10.5 15.625 -10.5 15.625 -13 17 C-13 15.68 -13 14.36 -13 13 C-12.01 13 -11.02 13 -10 13 C-10 12.34 -10 11.68 -10 11 C-9.01 11 -8.02 11 -7 11 C-7 9.35 -7 7.7 -7 6 C-5.68 6.33 -4.36 6.66 -3 7 C-2.67 5.68 -2.34 4.36 -2 3 C-1.34 3 -0.68 3 0 3 C0 2.01 0 1.02 0 0 Z " fill="#F1AD68" transform="translate(307,255)"/>
 <path d="M0 0 C0.33 0 0.66 0 1 0 C1.02694851 1.95825873 1.04637218 3.91662226 1.0625 5.875 C1.07410156 6.96554688 1.08570313 8.05609375 1.09765625 9.1796875 C1 12 1 12 0 14 C-2.60181373 15.52520115 -5.08255768 16.30886587 -8 17 C-7.59007812 16.35933594 -7.18015625 15.71867188 -6.7578125 15.05859375 C-3.66184574 10.08875238 -1.24627496 5.73286482 0 0 Z " fill="#F6B050" transform="translate(284,222)"/>
 <path d="M0 0 C-1.34603482 4.03810445 -3.65336723 5.47295076 -7 8 C-7.66 8 -8.32 8 -9 8 C-9 8.66 -9 9.32 -9 10 C-9.66 10 -10.32 10 -11 10 C-11.66 11.65 -12.32 13.3 -13 15 C-13.75 13.3125 -13.75 13.3125 -14 11 C-11.86618551 7.7230706 -10.74981988 6.24993996 -7 5 C-6.67 4.34 -6.34 3.68 -6 3 C-4.60722783 0.21445565 -3.01148006 0 0 0 Z " fill="#F3A56C" transform="translate(282,279)"/>
 <path d="M0 0 C0.66 0.33 1.32 0.66 2 1 C1.67 1.66 1.34 2.32 1 3 C2.32 2.67 3.64 2.34 5 2 C5.33 2.99 5.66 3.98 6 5 C6.66 5.33 7.32 5.66 8 6 C7.67 6.66 7.34 7.32 7 8 C4.03 8 1.06 8 -2 8 C-2 7.34 -2 6.68 -2 6 C-1.34 6 -0.68 6 0 6 C0 4.02 0 2.04 0 0 Z " fill="#FB9723" transform="translate(329,227)"/>
 <path d="M0 0 C0.66 0.66 1.32 1.32 2 2 C1.625 4.125 1.625 4.125 1 6 C0.34 5.67 -0.32 5.34 -1 5 C-0.67 3.35 -0.34 1.7 0 0 Z M-3 5 C-2.34 5.33 -1.68 5.66 -1 6 C-1 7.32 -1 8.64 -1 10 C-2.32 10 -3.64 10 -5 10 C-5 11.65 -5 13.3 -5 15 C-5.99 15.33 -6.98 15.66 -8 16 C-7.125 10.25 -7.125 10.25 -6 8 C-5.01 8 -4.02 8 -3 8 C-3 7.01 -3 6.02 -3 5 Z " fill="#FBAB21" transform="translate(190,182)"/>
 <path d="M0 0 C4.60428934 1.31551124 8.18320388 3.09196486 12 6 C12 6.66 12 7.32 12 8 C12.66 8 13.32 8 14 8 C14 8.66 14 9.32 14 10 C11.03 9.505 11.03 9.505 8 9 C8 8.01 8 7.02 8 6 C7.05125 5.7525 6.1025 5.505 5.125 5.25 C2 4 2 4 0.625 1.875 C0.41875 1.25625 0.2125 0.6375 0 0 Z " fill="#F7CA54" transform="translate(283,156)"/>
 <path d="M0 0 C4.05281712 1.22527029 7.44360764 2.69880494 11 5 C10.67 5.66 10.34 6.32 10 7 C8.9275 6.979375 7.855 6.95875 6.75 6.9375 C3.85209576 6.9857984 1.71387859 7.13155885 -1 8 C-1 6 -1 6 0.5 4.375 C0.995 3.92125 1.49 3.4675 2 3 C1.34 2.67 0.68 2.34 0 2 C0 1.34 0 0.68 0 0 Z " fill="#F8C23C" transform="translate(181,148)"/>
 <path d="M0 0 C1.32 0.33 2.64 0.66 4 1 C3.75270995 4.62057996 3.25387196 5.77305986 0.49609375 8.23828125 C-0.51324219 8.92277344 -1.52257812 9.60726562 -2.5625 10.3125 C-3.57441406 11.00988281 -4.58632813 11.70726562 -5.62890625 12.42578125 C-6.41136719 12.94527344 -7.19382812 13.46476563 -8 14 C-8.33 13.01 -8.66 12.02 -9 11 C-7.35 10.67 -5.7 10.34 -4 10 C-3.67 8.68 -3.34 7.36 -3 6 C-1.68 5.67 -0.36 5.34 1 5 C1.33 3.68 1.66 2.36 2 1 C1.34 0.67 0.68 0.34 0 0 Z " fill="#F4C368" transform="translate(352,182)"/>
 <path d="M0 0 C2.31 0.33 4.62 0.66 7 1 C7 1.66 7 2.32 7 3 C12.34902924 3.59198743 17.60884846 4.14187241 23 4 C23 4.33 23 4.66 23 5 C15.25513521 6.87754298 9.28915353 5.77682039 2 3 C2 2.34 2 1.68 2 1 C1.34 0.67 0.68 0.34 0 0 Z " fill="#F3AC7A" transform="translate(233,374)"/>
 <path d="M0 0 C0.66 0.33 1.32 0.66 2 1 C0.68 7.27 -0.64 13.54 -2 20 C-2.33 20 -2.66 20 -3 20 C-3.08112454 17.41603321 -3.14054748 14.83462432 -3.1875 12.25 C-3.21263672 11.52039063 -3.23777344 10.79078125 -3.26367188 10.0390625 C-3.30981636 6.65513396 -3.25324128 4.42141443 -1.48828125 1.484375 C-0.75158203 0.74960937 -0.75158203 0.74960937 0 0 Z " fill="#F1A469" transform="translate(265,295)"/>
 <path d="M0 0 C2.25 0.875 2.25 0.875 4 2 C3.38125 2.7425 2.7625 3.485 2.125 4.25 C0.39562719 6.48801188 -0.86106661 8.43739987 -2 11 C-2.33 11 -2.66 11 -3 11 C-3.33 8.03 -3.66 5.06 -4 2 C-2.68 1.34 -1.36 0.68 0 0 Z " fill="#F8B63D" transform="translate(220,193)"/>
 <path d="M0 0 C0 3.58912412 -0.66436554 4.10857029 -3 6.6875 C-3.556875 7.31011719 -4.11375 7.93273437 -4.6875 8.57421875 C-5.120625 9.04472656 -5.55375 9.51523438 -6 10 C-9 9 -9 9 -10.1875 6.9375 C-10.455625 6.298125 -10.72375 5.65875 -11 5 C-9.68 5.33 -8.36 5.66 -7 6 C-6.773125 5.38125 -6.54625 4.7625 -6.3125 4.125 C-4.62070165 1.38589791 -3.00755839 0.94975528 0 0 Z " fill="#F4C155" transform="translate(322,164)"/>
 <path d="M0 0 C0.33 0 0.66 0 1 0 C1 2.64 1 5.28 1 8 C1.66 8.33 2.32 8.66 3 9 C2.34 12.3 1.68 15.6 1 19 C-1 17 -1 17 -1.23046875 14.1015625 C-1.21628906 12.95429688 -1.20210937 11.80703125 -1.1875 10.625 C-1.18105469 9.48289063 -1.17460937 8.34078125 -1.16796875 7.1640625 C-1.0310161 4.58425671 -0.75511844 2.45262469 0 0 Z " fill="#F7B03E" transform="translate(181,198)"/>
 <path d="M0 0 C6.9113364 0.47122748 12.72204161 3.20636006 19 6 C15.53001852 7.15666049 14.5783755 6.78653952 11.1875 5.6875 C10.30707031 5.40648437 9.42664063 5.12546875 8.51953125 4.8359375 C7.68808594 4.56007812 6.85664063 4.28421875 6 4 C4.80375 3.608125 3.6075 3.21625 2.375 2.8125 C1.59125 2.544375 0.8075 2.27625 0 2 C0 1.34 0 0.68 0 0 Z " fill="#F2BB64" transform="translate(336,217)"/>
 <path d="M0 0 C3.64468616 3.2708722 5.29296777 5.16454967 6 10 C4.3789897 10.69685498 2.75303934 11.38222861 1.125 12.0625 C0.22007812 12.44535156 -0.68484375 12.82820312 -1.6171875 13.22265625 C-4 14 -4 14 -6 13 C-4.68 12.34 -3.36 11.68 -2 11 C-2 10.34 -2 9.68 -2 9 C0.31 9 2.62 9 5 9 C4.6390625 8.51789063 4.278125 8.03578125 3.90625 7.5390625 C3.4421875 6.90742188 2.978125 6.27578125 2.5 5.625 C2.0359375 4.99851563 1.571875 4.37203125 1.09375 3.7265625 C0 2 0 2 0 0 Z " fill="#F6D064" transform="translate(222,134)"/>
 <path d="M0 0 C-1.47692308 5.66153846 -1.47692308 5.66153846 -4.125 7.375 C-5.053125 7.684375 -5.053125 7.684375 -6 8 C-6.66 6.68 -7.32 5.36 -8 4 C-2.25 0 -2.25 0 0 0 Z " fill="#F6C54A" transform="translate(309,153)"/>
 <path d="M0 0 C1.03253906 0.00676758 1.03253906 0.00676758 2.0859375 0.01367188 C3.76566335 0.02533664 5.44534375 0.04326729 7.125 0.0625 C7.125 0.3925 7.125 0.7225 7.125 1.0625 C6.3515625 1.11148438 5.578125 1.16046875 4.78125 1.2109375 C-1.33501367 1.64997623 -6.98192791 2.36257536 -12.875 4.0625 C-13.205 3.0725 -13.535 2.0825 -13.875 1.0625 C-9.21962644 0.14157719 -4.72814567 -0.05955997 0 0 Z " fill="#F5C86D" transform="translate(246.875,181.9375)"/>
 <path d="M0 0 C1.65 0 3.3 0 5 0 C5 0.66 5 1.32 5 2 C7.64 2 10.28 2 13 2 C12.67 2.66 12.34 3.32 12 4 C9.36 3.67 6.72 3.34 4 3 C3.67 3.66 3.34 4.32 3 5 C2.01 4.67 1.02 4.34 0 4 C0 2.68 0 1.36 0 0 Z " fill="#F8C224" transform="translate(168,145)"/>
 <path d="M0 0 C0.33 0 0.66 0 1 0 C1.3690205 9.41002278 1.3690205 9.41002278 -1 14 C-1.66 14 -2.32 14 -3 14 C-3.33 14.66 -3.66 15.32 -4 16 C-3.27275406 10.47293087 -1.66554027 5.30039859 0 0 Z " fill="#F7D751" transform="translate(246,110)"/>
 <path d="M0 0 C2.32240046 2.85021875 3.93906527 5.46355091 5 9 C4.625 11.3125 4.625 11.3125 4 13 C4 12.34 4 11.68 4 11 C3.01 10.67 2.02 10.34 1 10 C-0.1577506 6.52674819 -0.06866652 3.63932552 0 0 Z " fill="#F5BC51" transform="translate(313,186)"/>
 <path d="M0 0 C-0.98226563 0.58201172 -0.98226563 0.58201172 -1.984375 1.17578125 C-4.23981033 2.83325291 -4.23981033 2.83325291 -4.390625 5.48046875 C-4.34421875 6.37378906 -4.2978125 7.26710937 -4.25 8.1875 C-4.21390625 9.08855469 -4.1778125 9.98960937 -4.140625 10.91796875 C-4.09421875 11.60503906 -4.0478125 12.29210937 -4 13 C-6.58926331 10.41073669 -6.37398043 8.97294721 -6.625 5.375 C-6.69976562 4.37210938 -6.77453125 3.36921875 -6.8515625 2.3359375 C-6.90054687 1.56507813 -6.94953125 0.79421875 -7 0 C-3.86650268 -1.04449911 -3.01031744 -0.93423645 0 0 Z " fill="#F8B640" transform="translate(330,184)"/>
 <path d="M0 0 C0 0.66 0 1.32 0 2 C0.99 2.33 1.98 2.66 3 3 C3 3.33 3 3.66 3 4 C-3.93 3.505 -3.93 3.505 -11 3 C-6.93675441 0.9683772 -4.47525541 0 0 0 Z " fill="#F6B331" transform="translate(258,179)"/>
 <path d="M0 0 C1.125 3.75 1.125 3.75 0 6 C-2.28515625 6.8515625 -2.28515625 6.8515625 -5.0625 7.625 C-5.98160156 7.88539063 -6.90070313 8.14578125 -7.84765625 8.4140625 C-8.55792969 8.60742188 -9.26820313 8.80078125 -10 9 C-6.85281112 5.7317654 -3.50647501 2.8689341 0 0 Z " fill="#F1B05A" transform="translate(275,239)"/>
 <path d="M0 0 C0.66 0 1.32 0 2 0 C2.36923077 4.55384615 2.36923077 4.55384615 0.5 6.8125 C0.005 7.204375 -0.49 7.59625 -1 8 C-1.66 7.34 -2.32 6.68 -3 6 C-5.06874034 5.3574765 -5.06874034 5.3574765 -7 5 C-7 4.34 -7 3.68 -7 3 C-5.5459375 2.814375 -5.5459375 2.814375 -4.0625 2.625 C-2.5465625 2.315625 -2.5465625 2.315625 -1 2 C-0.67 1.34 -0.34 0.68 0 0 Z " fill="#FCA41C" transform="translate(167,217)"/>
 <path d="M0 0 C0 0.66 0 1.32 0 2 C-0.99 2.66 -1.98 3.32 -3 4 C-4.07136051 6.30144109 -5.07989717 8.6340213 -6 11 C-6.33 11 -6.66 11 -7 11 C-6.91291331 9.54054712 -6.80473093 8.08234132 -6.6875 6.625 C-6.62949219 5.81289063 -6.57148438 5.00078125 -6.51171875 4.1640625 C-5.63232556 0.44510199 -3.5560175 0 0 0 Z " fill="#F67F31" transform="translate(238,283)"/>
 <path d="M0 0 C0 1.65 0 3.3 0 5 C-0.33 3.68 -0.66 2.36 -1 1 C-1.59167969 1.28875 -2.18335938 1.5775 -2.79296875 1.875 C-10.64147627 5.56239016 -10.64147627 5.56239016 -15 5 C-10.14488244 1.04397828 -6.28074033 -0.29212746 0 0 Z " fill="#F3CE67" transform="translate(334,143)"/>
 <path d="M0 0 C1.32 0 2.64 0 4 0 C3.125 4.75 3.125 4.75 2 7 C1.34 7 0.68 7 0 7 C0 6.01 0 5.02 0 4 C-0.99 3.67 -1.98 3.34 -3 3 C-2.34 3 -1.68 3 -1 3 C-0.67 2.01 -0.34 1.02 0 0 Z " fill="#FB7B2C" transform="translate(236,312)"/>
 <path d="M0 0 C0.99 0.33 1.98 0.66 3 1 C3 1.99 3 2.98 3 4 C4.299375 4.12375 5.59875 4.2475 6.9375 4.375 C9.15234375 4.5859375 9.15234375 4.5859375 11 5 C11.33 5.66 11.66 6.32 12 7 C8.96666668 7.22893082 6.02681166 7.34883468 3 7 C0.9375 5.1875 0.9375 5.1875 0 3 C0 2.01 0 1.02 0 0 Z " fill="#F8BB25" transform="translate(288,161)"/>
 <path d="M0 0 C2.31 0 4.62 0 7 0 C7 1.32 7 2.64 7 4 C6.34 4 5.68 4 5 4 C5 3.34 5 2.68 5 2 C4.34 2 3.68 2 3 2 C3 2.99 3 3.98 3 5 C3.66 5 4.32 5 5 5 C4.67 5.66 4.34 6.32 4 7 C1 5 1 5 0.3125 2.375 C0.209375 1.59125 0.10625 0.8075 0 0 Z " fill="#F6A93B" transform="translate(181,226)"/>
 <path d="M0 0 C0.33 0.99 0.66 1.98 1 3 C0.34 3 -0.32 3 -1 3 C-0.67 4.65 -0.34 6.3 0 8 C-0.66 8 -1.32 8 -2 8 C-2 7.34 -2 6.68 -2 6 C-2.66 6 -3.32 6 -4 6 C-5.625 3.5 -5.625 3.5 -7 1 C-5.5459375 1.0309375 -5.5459375 1.0309375 -4.0625 1.0625 C-1.12534105 1.35618499 -1.12534105 1.35618499 0 0 Z " fill="#F5B949" transform="translate(311,160)"/>
 <path d="M0 0 C1.32342458 3.97027374 0.36639254 6.11656858 -1 10 C-1.99 10.495 -1.99 10.495 -3 11 C-4.13350534 13.01669827 -4.13350534 13.01669827 -5 15 C-5.30017023 10.83513802 -4.45324946 8.34984273 -2.5 4.6875 C-2.0359375 3.80449219 -1.571875 2.92148437 -1.09375 2.01171875 C-0.7328125 1.34785156 -0.371875 0.68398438 0 0 Z " fill="#F1A06B" transform="translate(236,274)"/>
 <path d="M0 0 C0.99 0 1.98 0 3 0 C2.57405412 1.44096586 2.13373367 2.87768712 1.6875 4.3125 C1.44386719 5.11300781 1.20023437 5.91351563 0.94921875 6.73828125 C-0.04182023 9.09964573 -1.08074943 10.33879993 -3 12 C-3 10.35 -3 8.7 -3 7 C-2.34 7 -1.68 7 -1 7 C-0.67 4.69 -0.34 2.38 0 0 Z " fill="#F4B465" transform="translate(314,241)"/>
 <path d="M0 0 C3.24299151 2.38957269 5.50902342 4.2047869 7 8 C4.69 7.34 2.38 6.68 0 6 C0 4.02 0 2.04 0 0 Z " fill="#F5C65B" transform="translate(300,168)"/>
 <path d="M0 0 C4.67692308 1.47692308 4.67692308 1.47692308 6.3125 4.125 C6.539375 4.74375 6.76625 5.3625 7 6 C3.77208445 8.1519437 2.71599191 8.20086443 -1 8 C-0.360625 7.731875 0.27875 7.46375 0.9375 7.1875 C3.33131686 6.11332248 3.33131686 6.11332248 4 3 C2.68 2.67 1.36 2.34 0 2 C0 1.34 0 0.68 0 0 Z " fill="#F2B367" transform="translate(355,224)"/>
 <path d="M0 0 C0.66 0 1.32 0 2 0 C2.33 1.65 2.66 3.3 3 5 C1.02 5.99 1.02 5.99 -1 7 C-2 4 -2 4 -1.0625 1.8125 C-0.5365625 0.9153125 -0.5365625 0.9153125 0 0 Z " fill="#FC7D27" transform="translate(258,310)"/>
 <path d="M0 0 C2.64 0 5.28 0 8 0 C8 0.66 8 1.32 8 2 C9.65 2.33 11.3 2.66 13 3 C9.57056481 4.18771723 7.62215325 3.80226223 4.25 2.5625 C3.45078125 2.27503906 2.6515625 1.98757812 1.828125 1.69140625 C1.22484375 1.46324219 0.6215625 1.23507813 0 1 C0 0.67 0 0.34 0 0 Z " fill="#F5C046" transform="translate(278,145)"/>
 <path d="M0 0 C0.99 0 1.98 0 3 0 C3 0.66 3 1.32 3 2 C3.66 2.33 4.32 2.66 5 3 C4.34 3 3.68 3 3 3 C3 3.66 3 4.32 3 5 C1.35 5.33 -0.3 5.66 -2 6 C-2 5.34 -2 4.68 -2 4 C-1.34 4 -0.68 4 0 4 C0 2.68 0 1.36 0 0 Z " fill="#F98728" transform="translate(243,266)"/>
 <path d="M0 0 C4.84659077 0.59104765 8.60748167 1.97944157 13 4 C8.74938644 5.41687119 6.28148375 4.19320039 2 3 C2 2.34 2 1.68 2 1 C1.34 0.67 0.68 0.34 0 0 Z " fill="#F7D466" transform="translate(270,151)"/>
 <path d="M0 0 C0.66 0 1.32 0 2 0 C2 0.99 2 1.98 2 3 C3.98 2.67 5.96 2.34 8 2 C7 4 7 4 3.9375 5.125 C2.4834375 5.558125 2.4834375 5.558125 1 6 C0 5 0 5 -0.0625 2.4375 C-0.041875 1.633125 -0.02125 0.82875 0 0 Z " fill="#F2CF72" transform="translate(207,146)"/>
 <path d="M0 0 C0.33 0.99 0.66 1.98 1 3 C-1 5 -1 5 -4.125 5.125 C-5.548125 5.063125 -5.548125 5.063125 -7 5 C-6.01 4.67 -5.02 4.34 -4 4 C-3.67 3.01 -3.34 2.02 -3 1 C-2.01 0.67 -1.02 0.34 0 0 Z " fill="#F58F36" transform="translate(293,269)"/>
 <path d="M0 0 C2.31 0.33 4.62 0.66 7 1 C7 1.66 7 2.32 7 3 C7.99 3.33 8.98 3.66 10 4 C7.36 3.67 4.72 3.34 2 3 C2 2.34 2 1.68 2 1 C1.34 0.67 0.68 0.34 0 0 Z " fill="#EC9056" transform="translate(233,374)"/>
 <path d="M0 0 C0.66 0.33 1.32 0.66 2 1 C-2.39453125 5.00390625 -2.39453125 5.00390625 -4 6 C-4.99 5.67 -5.98 5.34 -7 5 C-4.88437775 2.67281553 -2.94982021 1.14186589 0 0 Z " fill="#F59840" transform="translate(250,260)"/>
 <path d="M0 0 C0 0.66 0 1.32 0 2 C0.99 2.33 1.98 2.66 3 3 C-0.3 3.33 -3.6 3.66 -7 4 C-6.67 3.01 -6.34 2.02 -6 1 C-3 0 -3 0 0 0 Z " fill="#F9AF1F" transform="translate(244,179)"/>
 <path d="M0 0 C1.98 0.99 1.98 0.99 4 2 C4 2.66 4 3.32 4 4 C4.66 4 5.32 4 6 4 C6 4.66 6 5.32 6 6 C3.03 5.505 3.03 5.505 0 5 C0 3.35 0 1.7 0 0 Z " fill="#F8CB6C" transform="translate(291,160)"/>
 <path d="M0 0 C0 3 0 3 -1 6 C-3.5625 7.1875 -3.5625 7.1875 -6 8 C-4.26440562 4.942048 -2.61527381 2.36620011 0 0 Z " fill="#F7D870" transform="translate(286,123)"/>
 <path d="M0 0 C1.32 0.33 2.64 0.66 4 1 C3.67 2.65 3.34 4.3 3 6 C2.01 5.34 1.02 4.68 0 4 C0 2.68 0 1.36 0 0 Z " fill="#F78034" transform="translate(264,290)"/>
 <path d="M0 0 C1.32 1.32 2.64 2.64 4 4 C3.34 5.65 2.68 7.3 2 9 C1.67 9 1.34 9 1 9 C0.67 6.03 0.34 3.06 0 0 Z " fill="#FCB84F" transform="translate(216,195)"/>
 <path d="M0 0 C1.98 0 3.96 0 6 0 C4 3 4 3 1.375 3.6875 C0.199375 3.8421875 0.199375 3.8421875 -1 4 C-0.67 2.68 -0.34 1.36 0 0 Z " fill="#F7B724" transform="translate(212,145)"/>
 <path d="M0 0 C0.99 0.33 1.98 0.66 3 1 C0.64031256 3.09749995 -0.54616994 3.96905704 -3.75 4.1875 C-4.86375 4.0946875 -4.86375 4.0946875 -6 4 C-4.03617993 2.49440461 -2.21736634 1.10868317 0 0 Z " fill="#EFA66A" transform="translate(257,319)"/>
 <path d="M0 0 C0.33 1.32 0.66 2.64 1 4 C0.34 4 -0.32 4 -1 4 C-1 4.66 -1 5.32 -1 6 C-2.98 6.99 -2.98 6.99 -5 8 C-3.62845496 5.04590299 -2.01136276 2.55991624 0 0 Z " fill="#F0B472" transform="translate(242,266)"/>
 <path d="M0 0 C0.66 0 1.32 0 2 0 C1.375 2.4375 1.375 2.4375 0 5 C-3.125 5.8125 -3.125 5.8125 -6 6 C-4.71034824 4.62437146 -3.37310707 3.29233607 -2 2 C-1.34 2 -0.68 2 0 2 C0 1.34 0 0.68 0 0 Z " fill="#F2B164" transform="translate(263,248)"/>
 <path d="M0 0 C0.33 0 0.66 0 1 0 C1 2.31 1 4.62 1 7 C0.01 7.33 -0.98 7.66 -2 8 C-1.125 2.25 -1.125 2.25 0 0 Z " fill="#F4C45E" transform="translate(184,190)"/>
 <path d="M0 0 C0.598125 0.20625 1.19625 0.4125 1.8125 0.625 C-0.4975 1.945 -2.8075 3.265 -5.1875 4.625 C-5.1875 3.635 -5.1875 2.645 -5.1875 1.625 C-2.1875 -0.375 -2.1875 -0.375 0 0 Z " fill="#FABC1D" transform="translate(223.1875,154.375)"/>
 <path d="M0 0 C1 2 1 2 0.3125 4.5625 C-0.120625 5.366875 -0.55375 6.17125 -1 7 C-2.32 7.33 -3.64 7.66 -5 8 C-3.35 5.36 -1.7 2.72 0 0 Z " fill="#F5D35B" transform="translate(279,131)"/>
</svg>
