<svg width="500" height="500" viewBox="0 0 500 500" xmlns="http://www.w3.org/2000/svg">
  <defs>
    <linearGradient id="gradienteSol" x1="0%" y1="0%" x2="0%" y2="100%">
      <stop offset="0%" style="stop-color:#FFD700;stop-opacity:1" />
      <stop offset="100%" style="stop-color:#FF8C00;stop-opacity:1" />
    </linearGradient>
  </defs>
  
  <path d="M190,190 C190,120 310,120 310,190 C310,240 250,250 250,310" 
        stroke="url(#gradienteSol)" stroke-width="45" fill="none" stroke-linecap="round" />
  
  <circle cx="250" cy="380" r="25" fill="url(#gradienteSol)" />
  
  <g fill="url(#gradienteSol)">
    <path d="M250,110 L235,140 L265,140 Z" /> <path d="M180,130 L175,165 L205,155 Z" transform="rotate(-30, 180, 130)" />
    <path d="M125,185 L130,220 L155,200 Z" transform="rotate(-60, 125, 185)" />
    <path d="M320,130 L325,165 L295,155 Z" transform="rotate(30, 320, 130)" />
    <path d="M375,185 L370,220 L345,200 Z" transform="rotate(60, 375, 185)" />
    <path d="M110,260 L145,265 L135,240 Z" transform="rotate(-85, 110, 260)" />
    <path d="M390,260 L355,265 L365,240 Z" transform="rotate(85, 390, 260)" />
  </g>
</svg>
