<?xml version="1.0" encoding="utf-8"?>
<!DOCTYPE svg PUBLIC "-//W3C//DTD SVG 1.0//EN" "http://www.w3.org/TR/2001/REC-SVG-20010904/DTD/svg10.dtd">
<svg version="1.0" xmlns="http://www.w3.org/2000/svg" width="500px" height="500px" viewBox="0 0 500 500" preserveAspectRatio="xMidYMid meet">
 <g fill="#ffffff">
  <path d="M0 250 l0 -250 250 0 250 0 0 250 0 250 -250 0 -250 0 0 -250z m254.93 126.03 c2.78 -1.22 7.71 -6.35 9.42 -9.72 2.69 -5.27 2.69 -9.42 0.05 -15.14 -2.39 -5.18 -8.98 -10.11 -14.65 -11.04 -2.44 -0.39 -6.59 0.39 -9.42 1.71 -3.52 1.71 -7.71 6.01 -9.47 9.67 -1.42 2.83 -1.61 3.71 -1.61 7.13 0 3.37 0.20 4.35 1.56 7.18 3.47 7.37 10.89 11.91 18.70 11.43 1.81 -0.10 4.15 -0.63 5.42 -1.22z m-10.74 -52.05 c3.22 -0.49 5.47 -1.12 7.08 -2 8.45 -4.69 9.81 -6.84 10.89 -16.85 0.93 -8.40 3.37 -13.92 8.40 -18.95 2.88 -2.88 11.57 -9.81 12.94 -10.30 0.59 -0.24 1.81 -1.07 2.69 -1.81 2.73 -2.34 7.76 -6.01 8.20 -6.01 0.78 0 9.81 -9.91 12.50 -13.72 8.69 -12.26 13.04 -28.17 11.47 -41.75 -1.07 -9.57 -3.27 -16.80 -7.52 -24.90 -6.74 -12.94 -16.55 -22.80 -29.20 -29.49 -5.71 -2.98 -9.86 -4.59 -16.50 -6.25 -4.69 -1.17 -5.91 -1.32 -14.65 -1.27 -7.08 0 -10.55 0.20 -13.53 0.83 -21.24 4.49 -38.82 18.02 -48.93 37.60 -5.66 11.04 -8.50 26.22 -6.25 33.59 0.98 3.27 4.35 7.28 7.28 8.79 2.88 1.46 7.37 2.10 9.57 1.32 2.88 -0.98 5.13 -2.54 7.62 -5.32 3.61 -4 5.13 -7.71 6.15 -14.84 1.37 -9.13 4 -14.55 10.40 -21.09 3.08 -3.17 5.18 -4.88 7.32 -5.91 4.15 -2.05 7.08 -3.08 9.38 -3.37 1.07 -0.15 2.25 -0.49 2.59 -0.78 0.39 -0.29 3.91 -0.54 9.03 -0.54 8.01 -0.05 8.59 0 12.30 1.32 7.28 2.59 13.43 7.32 17.53 13.48 4.30 6.45 6.15 12.79 6.15 21.09 0 13.28 -4.88 21.83 -18.07 31.45 -13.53 9.86 -16.06 11.91 -20.85 16.50 -8.79 8.50 -13.67 17.14 -16.06 28.32 -0.59 2.69 -0.73 6.40 -0.68 15.72 0 6.69 0.15 12.99 0.29 14.01 l0.34 1.86 3.71 0 c2.05 0 5.81 -0.34 8.40 -0.73z m-73.97 -90.92 c-0.49 -2.39 -1.27 -10.06 -1.27 -12.65 l0 -2.54 -5.71 1.86 c-11.18 3.56 -21.14 7.71 -21.14 8.79 0 0.93 9.52 3.03 22.71 5.08 6.10 0.93 5.71 0.98 5.42 -0.54z m173.05 -0.44 c10.01 -1.71 13.23 -2.44 14.11 -3.37 0.73 -0.73 0.68 -0.88 -0.44 -1.71 -2.10 -1.56 -21.24 -8.69 -25.24 -9.38 -0.78 -0.15 -0.93 0.49 -1.17 5.71 -0.20 3.22 -0.49 6.84 -0.68 8.11 l-0.34 2.20 3.32 -0.20 c1.86 -0.10 6.54 -0.73 10.45 -1.37z m-7.57 -35.40 c2.15 -1.22 4.69 -2.78 5.66 -3.42 1.66 -1.07 3.71 -2.34 6.01 -3.71 0.59 -0.34 2.15 -1.56 3.47 -2.78 2.05 -1.86 2.34 -2.29 1.71 -2.73 -0.83 -0.59 -26.71 -0.49 -27.64 0.15 -0.44 0.24 0 1.95 1.37 5.81 1.03 3.03 2.15 6.54 2.39 7.81 0.49 2.25 0.54 2.29 1.81 1.71 0.73 -0.29 3.08 -1.56 5.22 -2.83z m-163.87 -1.32 c0.63 -2.34 1.76 -5.71 2.49 -7.57 0.98 -2.29 1.22 -3.37 0.78 -3.61 -0.88 -0.59 -26.81 -0.73 -27.59 -0.20 -0.59 0.39 -0.59 0.59 -0.10 1.22 1.51 1.81 21.29 14.36 22.75 14.45 0.29 0 1.03 -1.90 1.66 -4.30z m145.46 -28.61 c6.25 -8.25 14.65 -21.39 13.87 -21.68 -0.98 -0.29 -16.06 6.88 -23.44 11.13 l-2.59 1.51 3.27 3.52 c1.76 1.95 4.05 4.54 5.03 5.81 0.98 1.27 1.81 2.29 1.81 2.34 0.05 0 0.98 -1.17 2.05 -2.64z m-130.22 -0.39 c1.17 -1.42 3.42 -3.96 4.98 -5.62 l2.83 -2.98 -3.42 -2 c-6.64 -3.91 -21.04 -10.79 -22.56 -10.79 -0.63 0 1.42 3.76 5.81 10.50 3.76 5.81 9.33 13.43 9.81 13.43 0.24 0 1.37 -1.17 2.54 -2.54z m24.95 -19.87 c1.17 -0.54 4.44 -1.90 7.32 -3.03 l5.22 -2.05 -2 -2.88 c-3.81 -5.37 -15.72 -19.43 -16.55 -19.43 -0.83 0 -0.98 2.20 -0.44 7.47 0.49 5.08 3.13 19.43 3.71 20.41 0.34 0.59 0.34 0.59 2.73 -0.49z m78.96 -0.88 c1.17 -4.44 2.98 -14.50 3.47 -19.34 0.49 -5.08 0.39 -7.18 -0.44 -7.18 -1.22 0 -18.51 21.34 -17.77 21.97 0.20 0.20 2.15 1.03 4.30 1.90 2.15 0.88 5.13 2.20 6.59 2.93 1.46 0.78 2.83 1.42 3.03 1.46 0.20 0 0.59 -0.78 0.83 -1.76z m-32.67 -8.15 c0 -0.68 -2.69 -11.28 -4.10 -16.16 -2 -7.03 -3.61 -11.47 -4.15 -11.47 -1.27 0 -4.54 10.79 -8.11 26.76 l-0.24 1.07 8.30 0 c4.54 0 8.30 -0.10 8.30 -0.20z"/>
 </g>
 <g fill="#f58b22">
  <path d="M242.19 378.17 c-5.66 -1.61 -10.30 -5.52 -12.84 -10.89 -1.46 -3.08 -1.56 -3.61 -1.56 -8.64 0 -5.08 0.10 -5.57 1.56 -8.59 1.81 -3.71 6.05 -7.96 9.52 -9.67 5.18 -2.49 11.87 -2.54 17.19 -0.10 10.16 4.59 14.75 16.80 10.11 26.76 -1.81 3.81 -6.64 9.03 -9.77 10.50 -2.98 1.37 -10.35 1.66 -14.21 0.63z"/>
  <path d="M230.27 324.12 c-0.15 -1.17 -0.29 -8.15 -0.34 -15.53 -0.05 -10.69 0.10 -14.16 0.73 -16.94 2.49 -11.33 7.32 -19.82 16.06 -28.32 4.79 -4.59 7.32 -6.64 20.85 -16.50 3.27 -2.39 7.52 -6.01 9.38 -8.06 10.50 -11.38 11.52 -28.03 2.54 -41.55 -4.10 -6.15 -10.25 -10.89 -17.53 -13.48 -3.61 -1.27 -4.39 -1.37 -10.84 -1.32 -3.91 0.05 -7.23 0.29 -7.57 0.59 -0.34 0.24 -1.51 0.59 -2.59 0.73 -2.29 0.29 -5.22 1.32 -9.38 3.37 -2.15 1.03 -4.25 2.73 -7.32 5.91 -6.40 6.54 -9.03 11.96 -10.40 21.09 -1.03 7.13 -2.54 10.84 -6.15 14.84 -4.25 4.74 -7.86 6.25 -13.48 5.71 -4.88 -0.49 -7.71 -1.86 -10.64 -5.03 -3.32 -3.66 -4.15 -6.49 -4.10 -13.82 0.20 -12.21 4.30 -25.05 11.57 -35.89 10.21 -15.19 26.32 -26.03 44.43 -29.88 3.13 -0.68 6.45 -0.83 14.99 -0.88 10.35 0 11.28 0.10 16.11 1.32 13.23 3.32 24.02 9.38 33.15 18.51 23.54 23.54 27.20 60.50 8.59 86.82 -2.69 3.81 -11.72 13.72 -12.50 13.72 -0.44 0 -5.47 3.66 -8.20 6.01 -0.88 0.73 -2.10 1.56 -2.69 1.81 -1.37 0.49 -10.06 7.42 -12.94 10.30 -5.03 5.03 -7.47 10.55 -8.40 18.95 -1.07 10.01 -2.44 12.16 -10.89 16.85 -2.93 1.61 -9.72 2.73 -16.94 2.73 l-5.22 0 -0.29 -2.05z"/>
  <path d="M160.40 234.57 c-8.89 -1.42 -16.55 -2.98 -18.65 -3.86 -1.76 -0.73 -2.49 -2.39 -1.56 -3.47 0.78 -0.98 4.15 -2.69 9.08 -4.64 5.91 -2.34 18.26 -6.30 19.73 -6.30 l1.27 0 0.34 5.37 c0.15 2.93 0.63 7.18 1.03 9.38 0.39 2.25 0.73 4.20 0.73 4.44 0 0.63 -4.44 0.29 -11.96 -0.93z"/>
  <path d="M327.64 234.96 c0 -0.54 0.24 -2.15 0.54 -3.56 0.29 -1.46 0.68 -5.37 0.88 -8.74 l0.29 -6.10 1.46 -0.15 c1.66 -0.15 13.33 3.56 21.39 6.74 4.88 1.95 8.15 4.05 8.15 5.27 0 1.46 -2.34 3.13 -5.37 3.76 -6.40 1.42 -17.48 3.08 -22.31 3.42 -4.79 0.29 -5.03 0.29 -5.03 -0.63z"/>
  <path d="M163.57 198.83 c-8.01 -4.59 -16.75 -10.50 -18.07 -12.16 -1.27 -1.61 -1.22 -2.34 0.10 -3.27 0.93 -0.68 2.98 -0.78 13.09 -0.73 12.30 0 18.21 0.39 19.04 1.22 0.29 0.29 0.05 1.37 -0.73 3.03 -1.22 2.59 -3.66 9.81 -4.64 13.67 -0.34 1.42 -0.78 2.05 -1.37 2.05 -0.49 0 -3.81 -1.71 -7.42 -3.81z"/>
  <path d="M327.64 201.37 c-0.29 -0.68 -0.49 -1.51 -0.49 -1.90 0 -0.88 -3.81 -11.77 -4.69 -13.57 -1.03 -1.90 -0.44 -2.39 3.08 -2.83 4.54 -0.59 27.44 -0.49 28.52 0.05 1.81 0.98 1.17 2.93 -1.86 5.71 -1.51 1.42 -2.98 2.59 -3.27 2.59 -0.24 0 -0.88 0.39 -1.42 0.83 -0.49 0.49 -1.86 1.42 -3.03 2.10 -1.17 0.68 -3.61 2.15 -5.47 3.22 -5.18 3.13 -8.98 5.08 -10.01 5.08 -0.54 0 -1.12 -0.54 -1.37 -1.27z"/>
  <path d="M183.01 171.04 c-2.93 -3.27 -8.11 -10.64 -12.94 -18.65 -4.88 -8.01 -4.10 -10.25 2.59 -7.57 6.74 2.64 24.12 11.72 24.90 12.94 0.15 0.24 -1.61 2.44 -3.86 4.83 -2.29 2.39 -5.08 5.57 -6.25 7.03 -1.17 1.51 -2.39 2.73 -2.64 2.73 -0.29 0 -1.12 -0.59 -1.81 -1.32z"/>
  <path d="M312.30 169.43 c-1.27 -1.61 -4.05 -4.79 -6.20 -7.03 -2.10 -2.25 -3.86 -4.20 -3.86 -4.35 0 -0.49 4.44 -3.13 11.47 -6.74 9.81 -5.08 15.04 -7.28 17.38 -7.28 1.81 0 1.90 0.05 1.90 1.56 0 3.17 -15.67 26.76 -17.77 26.76 -0.34 0 -1.66 -1.32 -2.93 -2.93z"/>
  <path d="M207.08 146.09 c-1.66 -7.03 -2.88 -15.14 -3.27 -21.14 -0.29 -4.93 -0.24 -5.71 0.49 -6.45 2 -2 3.47 -0.88 12.06 9.42 6.45 7.71 10.30 13.13 10.11 14.36 -0.10 0.73 -1.37 1.46 -5.52 3.13 -2.93 1.17 -6.74 2.73 -8.45 3.56 -1.66 0.78 -3.37 1.42 -3.71 1.42 -0.49 0 -1.03 -1.42 -1.71 -4.30z"/>
  <path d="M286.13 148.19 c-2.29 -1.17 -6.05 -2.88 -8.40 -3.76 -2.49 -0.93 -4.30 -1.90 -4.30 -2.29 0 -1.42 10.35 -14.99 16.21 -21.14 3.52 -3.76 5.32 -4.35 6.35 -2.10 0.83 1.86 -0.24 12.89 -2.10 21.88 -1.66 8.25 -2.10 9.62 -2.98 9.57 -0.34 0 -2.49 -0.98 -4.79 -2.15z"/>
  <path d="M249.17 139.79 c-5.18 -0.10 -9.42 -0.29 -9.42 -0.49 0 -1.17 3.81 -17.04 5.18 -21.58 2.34 -7.71 3.22 -9.33 5.13 -9.33 1.27 0 1.61 0.29 2.39 2.05 2.25 5.18 8.15 27.54 7.62 28.96 -0.15 0.39 -0.54 0.68 -0.88 0.63 -0.34 -0.10 -4.88 -0.20 -10.01 -0.24z"/>
 </g>
</svg>
